<svg width="70" height="30" viewBox="0 0 70 30" fill="none" xmlns="http://www.w3.org/2000/svg">
<rect width="70" height="30" rx="2" fill="#A88BC9"/>
<path d="M6.804 22V6.49H9.07V20.108H16.594V22H6.804ZM31.4569 22L29.8069 18.172H21.9529L20.3029 22H18.0149L24.9229 6.49H26.8149L33.7229 22H31.4569ZM22.7229 16.368H29.0369L25.8909 9.02L22.7229 16.368ZM45.8852 14.014C46.7798 14.2633 47.4692 14.7107 47.9532 15.356C48.4518 16.0013 48.7012 16.808 48.7012 17.776C48.7012 19.1107 48.2392 20.152 47.3152 20.9C46.4058 21.6333 45.1298 22 43.4872 22H36.7552V6.49H43.2452C44.8438 6.49 46.0905 6.84933 46.9852 7.568C47.8945 8.272 48.3492 9.262 48.3492 10.538C48.3492 11.3593 48.1292 12.0707 47.6892 12.672C47.2638 13.2733 46.6625 13.7207 45.8852 14.014ZM38.9772 13.2H42.8932C45.0638 13.2 46.1492 12.3787 46.1492 10.736C46.1492 9.91467 45.8778 9.306 45.3352 8.91C44.8072 8.514 43.9932 8.316 42.8932 8.316H38.9772V13.2ZM43.2452 20.174C44.3745 20.174 45.2032 19.9687 45.7312 19.558C46.2592 19.1473 46.5232 18.5093 46.5232 17.644C46.5232 16.764 46.2518 16.1113 45.7092 15.686C45.1812 15.246 44.3598 15.026 43.2452 15.026H38.9772V20.174H43.2452ZM57.7473 22.176C56.5447 22.176 55.4373 22.0147 54.4253 21.692C53.428 21.3693 52.57 20.8927 51.8513 20.262L52.6653 18.59C53.428 19.206 54.2127 19.6533 55.0193 19.932C55.8407 20.196 56.7573 20.328 57.7693 20.328C58.928 20.328 59.8227 20.1153 60.4533 19.69C61.084 19.25 61.3993 18.634 61.3993 17.842C61.3993 17.1673 61.106 16.6687 60.5193 16.346C59.9327 16.0087 58.994 15.6933 57.7033 15.4C56.4713 15.136 55.4593 14.8353 54.6673 14.498C53.8753 14.1607 53.252 13.706 52.7973 13.134C52.3573 12.5473 52.1373 11.8067 52.1373 10.912C52.1373 10.0027 52.372 9.20333 52.8413 8.514C53.3253 7.82467 54.0073 7.28933 54.8873 6.908C55.7673 6.512 56.7867 6.314 57.9453 6.314C59.0307 6.314 60.05 6.48267 61.0033 6.82C61.9713 7.14267 62.7633 7.612 63.3793 8.228L62.5873 9.9C61.8687 9.31333 61.128 8.88067 60.3653 8.602C59.6173 8.30867 58.818 8.162 57.9673 8.162C56.8527 8.162 55.9727 8.39667 55.3273 8.866C54.6967 9.32067 54.3813 9.95867 54.3813 10.78C54.3813 11.484 54.66 12.0193 55.2173 12.386C55.7747 12.738 56.6693 13.0607 57.9013 13.354C59.192 13.6473 60.2333 13.9553 61.0253 14.278C61.832 14.586 62.47 15.0187 62.9393 15.576C63.4233 16.1187 63.6653 16.83 63.6653 17.71C63.6653 18.6047 63.4233 19.3893 62.9393 20.064C62.47 20.7387 61.788 21.2593 60.8933 21.626C60.0133 21.9927 58.9647 22.176 57.7473 22.176Z" fill="white"/>
</svg>
